<?xml version="1.0" encoding="UTF-8"?>
<svg style="width: 1600px; height: 1600px;" width="1640px" height="1640px" viewBox="0 0 1640 1640" xmlns="http://www.w3.org/2000/svg" xmlns:xlink="http://www.w3.org/1999/xlink" version="1.1">
 <!-- Generated by Pixelmator Pro 1.6.4 -->
 <g id="elrond-dark">
  <path id="Tracé" d="M859.761 1507.632 C859.237 1507.107 858.922 1506.583 858.922 1505.849 858.922 1505.115 859.237 1504.591 859.761 1504.067 860.81 1503.123 862.487 1503.123 863.64 1504.067 864.165 1504.591 864.479 1505.115 864.479 1505.849 864.479 1506.583 864.165 1507.107 863.64 1507.632 863.116 1508.051 862.382 1508.365 861.753 1508.365 861.019 1508.47 860.285 1508.261 859.761 1507.632 Z" fill="#0d022b" fill-opacity="1" stroke="none"/>
  <path id="Tracé-1" d="M853.051 1514.866 C852.631 1514.342 852.317 1513.818 852.317 1513.084 852.317 1512.35 852.631 1511.826 853.051 1511.301 853.994 1510.358 855.672 1510.358 856.616 1511.301 857.035 1511.826 857.349 1512.35 857.349 1513.084 857.349 1513.818 857.035 1514.342 856.616 1514.866 856.091 1515.286 855.567 1515.6 854.833 1515.6 854.099 1515.6 853.575 1515.286 853.051 1514.866 Z" fill="#0d022b" fill-opacity="1" stroke="none"/>
  <path id="Tracé-2" d="M845.711 1521.786 C845.292 1521.367 844.977 1520.738 844.977 1520.004 844.977 1519.27 845.292 1518.745 845.711 1518.221 846.655 1517.278 848.333 1517.278 849.276 1518.221 849.696 1518.641 850.01 1519.27 850.01 1520.004 850.01 1520.738 849.696 1521.262 849.276 1521.786 848.752 1522.31 848.228 1522.52 847.494 1522.52 846.76 1522.52 846.131 1522.206 845.711 1521.786 Z" fill="#0d022b" fill-opacity="1" stroke="none"/>
  <path id="Tracé-3" d="M838.686 1528.811 C838.162 1528.392 837.848 1527.763 837.848 1527.029 837.848 1526.295 838.162 1525.77 838.686 1525.246 839.735 1524.302 841.412 1524.302 842.566 1525.246 843.09 1525.666 843.405 1526.295 843.405 1527.029 843.405 1527.763 843.09 1528.392 842.566 1528.811 842.042 1529.335 841.308 1529.545 840.679 1529.545 839.945 1529.545 839.315 1529.44 838.686 1528.811 Z" fill="#0d022b" fill-opacity="1" stroke="none"/>
  <path id="Tracé-4" d="M831.976 1535.836 C831.452 1535.417 831.242 1534.787 831.242 1534.053 831.242 1533.319 831.557 1532.795 831.976 1532.271 832.92 1531.327 834.597 1531.327 835.541 1532.271 836.065 1532.69 836.275 1533.319 836.275 1534.053 836.275 1534.787 835.96 1535.417 835.541 1535.836 835.122 1536.36 834.492 1536.57 833.759 1536.57 833.129 1536.675 832.396 1536.465 831.976 1535.836 Z" fill="#0d022b" fill-opacity="1" stroke="none"/>
  <path id="Tracé-5" d="M823.903 1541.078 C823.903 1540.344 824.217 1539.82 824.637 1539.296 825.58 1538.352 827.258 1538.352 828.202 1539.296 828.726 1539.82 828.935 1540.344 828.935 1541.078 828.935 1541.812 828.621 1542.337 828.202 1542.861 827.782 1543.28 827.153 1543.595 826.419 1543.595 825.685 1543.595 825.161 1543.28 824.637 1542.861 824.112 1542.441 823.903 1541.812 823.903 1541.078 Z" fill="#0d022b" fill-opacity="1" stroke="none"/>
  <path id="Tracé-6" d="M810.797 1556.596 C810.377 1556.177 810.063 1555.547 810.063 1554.813 810.063 1554.08 810.377 1553.555 810.797 1553.031 811.74 1552.087 813.418 1552.087 814.362 1553.031 814.886 1553.555 815.095 1554.08 815.095 1554.813 815.095 1555.547 814.781 1556.072 814.362 1556.596 813.942 1557.12 813.313 1557.33 812.579 1557.33 811.95 1557.435 811.321 1557.225 810.797 1556.596 Z" fill="#0d022b" fill-opacity="1" stroke="none"/>
  <path id="Tracé-7" d="M803.562 1563.621 C803.038 1563.201 802.723 1562.572 802.723 1561.838 802.723 1561.104 803.038 1560.58 803.562 1560.056 804.611 1559.112 806.288 1559.112 807.442 1560.056 807.966 1560.58 808.28 1561.104 808.28 1561.838 808.28 1562.572 807.966 1563.097 807.442 1563.621 806.917 1564.145 806.183 1564.355 805.554 1564.355 804.715 1564.46 804.086 1564.145 803.562 1563.621 Z" fill="#0d022b" fill-opacity="1" stroke="none"/>
  <path id="Tracé-8" d="M796.747 1570.75 C796.328 1570.331 796.013 1569.702 796.013 1568.968 796.013 1568.234 796.328 1567.605 796.747 1567.186 797.691 1566.242 799.368 1566.242 800.312 1567.186 800.731 1567.605 801.046 1568.234 801.046 1568.968 801.046 1569.702 800.731 1570.226 800.312 1570.75 799.788 1571.275 799.263 1571.484 798.529 1571.484 797.795 1571.484 797.376 1571.17 796.747 1570.75 Z" fill="#0d022b" fill-opacity="1" stroke="none"/>
  <path id="Tracé-9" d="M789.722 1577.775 C789.198 1577.356 788.988 1576.727 788.988 1575.993 788.988 1575.259 789.303 1574.735 789.722 1574.21 790.666 1573.267 792.343 1573.267 793.287 1574.21 793.706 1574.735 794.021 1575.259 794.021 1575.993 794.021 1576.727 793.706 1577.356 793.287 1577.775 792.763 1578.3 792.238 1578.509 791.505 1578.509 790.875 1578.509 790.141 1578.3 789.722 1577.775 Z" fill="#0d022b" fill-opacity="1" stroke="none"/>
  <path id="Tracé-10" d="M782.487 1584.8 C781.963 1584.381 781.649 1583.752 781.649 1583.018 781.649 1582.284 781.963 1581.76 782.487 1581.235 783.536 1580.292 785.214 1580.292 786.157 1581.235 786.681 1581.76 786.996 1582.284 786.996 1583.018 786.996 1583.752 786.681 1584.381 786.157 1584.8 785.633 1585.22 784.899 1585.534 784.27 1585.534 783.536 1585.534 782.907 1585.324 782.487 1584.8 Z" fill="#0d022b" fill-opacity="1" stroke="none"/>
  <path id="Tracé-11" d="M775.568 1591.825 C775.043 1591.301 774.834 1590.777 774.834 1590.043 774.834 1589.309 775.148 1588.784 775.568 1588.26 776.511 1587.317 778.189 1587.317 779.132 1588.26 779.657 1588.784 779.866 1589.309 779.866 1590.043 779.866 1590.777 779.552 1591.301 779.132 1591.825 778.713 1592.245 778.084 1592.559 777.35 1592.559 776.826 1592.664 776.197 1592.349 775.568 1591.825 Z" fill="#0d022b" fill-opacity="1" stroke="none"/>
  <path id="Tracé-12" d="M779.132 1507.632 C779.552 1507.107 779.866 1506.583 779.866 1505.849 779.866 1505.115 779.552 1504.591 779.132 1504.067 778.189 1503.123 776.511 1503.123 775.568 1504.067 775.043 1504.591 774.834 1505.115 774.834 1505.849 774.834 1506.583 775.148 1507.107 775.568 1507.632 775.987 1508.051 776.616 1508.365 777.35 1508.365 778.084 1508.47 778.713 1508.261 779.132 1507.632 Z" fill="#0d022b" fill-opacity="1" stroke="none"/>
  <path id="Tracé-13" d="M786.157 1514.866 C786.681 1514.342 786.996 1513.818 786.996 1513.084 786.996 1512.35 786.681 1511.826 786.157 1511.301 785.109 1510.358 783.431 1510.358 782.278 1511.301 781.754 1511.826 781.439 1512.35 781.439 1513.084 781.439 1513.818 781.754 1514.342 782.278 1514.866 782.802 1515.286 783.536 1515.6 784.165 1515.6 784.899 1515.495 785.633 1515.286 786.157 1514.866 Z" fill="#0d022b" fill-opacity="1" stroke="none"/>
  <path id="Tracé-14" d="M793.287 1521.786 C793.706 1521.367 794.021 1520.738 794.021 1520.004 794.021 1519.27 793.706 1518.745 793.287 1518.221 792.343 1517.278 790.666 1517.278 789.722 1518.221 789.303 1518.641 788.988 1519.27 788.988 1520.004 788.988 1520.738 789.303 1521.262 789.722 1521.786 790.246 1522.31 790.771 1522.52 791.505 1522.52 792.134 1522.52 792.763 1522.206 793.287 1521.786 Z" fill="#0d022b" fill-opacity="1" stroke="none"/>
  <path id="Tracé-15" d="M800.312 1528.811 C800.731 1528.392 801.046 1527.763 801.046 1527.029 801.046 1526.295 800.731 1525.77 800.312 1525.246 799.368 1524.302 797.691 1524.302 796.747 1525.246 796.328 1525.666 796.013 1526.295 796.013 1527.029 796.013 1527.763 796.328 1528.392 796.747 1528.811 797.271 1529.335 797.795 1529.545 798.529 1529.545 799.158 1529.545 799.788 1529.44 800.312 1528.811 Z" fill="#0d022b" fill-opacity="1" stroke="none"/>
  <path id="Tracé-16" d="M807.232 1535.836 C807.756 1535.417 808.071 1534.787 808.071 1534.053 808.071 1533.319 807.756 1532.795 807.232 1532.271 806.288 1531.327 804.506 1531.327 803.562 1532.271 803.038 1532.69 802.723 1533.319 802.723 1534.053 802.723 1534.787 803.038 1535.417 803.562 1535.836 804.086 1536.36 804.82 1536.57 805.449 1536.57 806.078 1536.675 806.812 1536.465 807.232 1535.836 Z" fill="#0d022b" fill-opacity="1" stroke="none"/>
  <path id="Tracé-17" d="M815.095 1541.078 C815.095 1540.344 814.781 1539.82 814.362 1539.296 813.418 1538.352 811.74 1538.352 810.797 1539.296 810.272 1539.82 810.063 1540.344 810.063 1541.078 810.063 1541.812 810.377 1542.337 810.797 1542.861 811.216 1543.28 811.845 1543.595 812.579 1543.595 813.313 1543.595 813.837 1543.28 814.362 1542.861 814.886 1542.441 815.095 1541.812 815.095 1541.078 Z" fill="#0d022b" fill-opacity="1" stroke="none"/>
  <path id="Tracé-18" d="M821.386 1549.99 C821.911 1549.466 822.12 1548.942 822.12 1548.208 822.12 1547.474 821.806 1546.95 821.386 1546.426 820.443 1545.482 818.765 1545.482 817.822 1546.426 817.297 1546.95 817.088 1547.474 817.088 1548.208 817.088 1548.942 817.402 1549.466 817.822 1549.99 818.241 1550.41 818.87 1550.724 819.604 1550.724 820.338 1550.724 820.967 1550.41 821.386 1549.99 Z" fill="#0d022b" fill-opacity="1" stroke="none"/>
  <path id="Tracé-19" d="M828.411 1556.596 C828.935 1556.177 829.25 1555.547 829.25 1554.813 829.25 1554.08 828.935 1553.555 828.411 1553.031 827.363 1552.087 825.685 1552.087 824.742 1553.031 824.217 1553.555 823.903 1554.08 823.903 1554.813 823.903 1555.547 824.217 1556.072 824.742 1556.596 825.266 1557.12 826 1557.33 826.629 1557.33 827.153 1557.435 827.887 1557.225 828.411 1556.596 Z" fill="#0d022b" fill-opacity="1" stroke="none"/>
  <path id="Tracé-20" d="M835.541 1563.621 C835.96 1563.201 836.275 1562.572 836.275 1561.838 836.275 1561.104 835.96 1560.58 835.541 1560.056 834.597 1559.112 832.92 1559.112 831.976 1560.056 831.557 1560.58 831.242 1561.104 831.242 1561.838 831.242 1562.572 831.557 1563.097 831.976 1563.621 832.5 1564.145 833.025 1564.355 833.759 1564.355 834.283 1564.46 835.017 1564.145 835.541 1563.621 Z" fill="#0d022b" fill-opacity="1" stroke="none"/>
  <path id="Tracé-21" d="M842.566 1570.75 C842.985 1570.331 843.3 1569.702 843.3 1568.968 843.3 1568.234 842.985 1567.605 842.566 1567.186 841.622 1566.242 839.945 1566.242 839.001 1567.186 838.582 1567.605 838.267 1568.234 838.267 1568.968 838.267 1569.702 838.582 1570.226 839.001 1570.75 839.525 1571.275 840.049 1571.484 840.783 1571.484 841.517 1571.484 842.042 1571.17 842.566 1570.75 Z" fill="#0d022b" fill-opacity="1" stroke="none"/>
  <path id="Tracé-22" d="M849.171 1577.775 C849.696 1577.356 849.905 1576.727 849.905 1575.993 849.905 1575.259 849.591 1574.735 849.171 1574.21 848.228 1573.267 846.55 1573.267 845.606 1574.21 845.187 1574.735 844.872 1575.259 844.872 1575.993 844.872 1576.727 845.187 1577.356 845.606 1577.775 846.131 1578.3 846.655 1578.509 847.389 1578.509 848.018 1578.509 848.752 1578.3 849.171 1577.775 Z" fill="#0d022b" fill-opacity="1" stroke="none"/>
  <path id="Tracé-23" d="M856.616 1584.8 C857.14 1584.381 857.349 1583.752 857.349 1583.018 857.349 1582.284 857.035 1581.76 856.616 1581.235 855.672 1580.292 853.994 1580.292 853.051 1581.235 852.526 1581.76 852.317 1582.284 852.317 1583.018 852.317 1583.752 852.631 1584.381 853.051 1584.8 853.47 1585.22 854.099 1585.534 854.833 1585.534 855.567 1585.534 856.196 1585.324 856.616 1584.8 Z" fill="#0d022b" fill-opacity="1" stroke="none"/>
  <path id="Tracé-24" d="M863.64 1591.825 C864.165 1591.301 864.479 1590.777 864.479 1590.043 864.479 1589.309 864.165 1588.784 863.64 1588.26 862.592 1587.317 860.914 1587.317 859.971 1588.26 859.446 1588.784 859.132 1589.309 859.132 1590.043 859.132 1590.777 859.446 1591.301 859.971 1591.825 860.495 1592.245 861.229 1592.559 861.858 1592.559 862.382 1592.664 863.011 1592.349 863.64 1591.825 Z" fill="#0d022b" fill-opacity="1" stroke="none"/>
  <path id="Tracé-25" d="M795.803 1509.624 C802.933 1504.906 810.797 1502.704 819.499 1502.599 827.992 1502.599 835.856 1504.906 843.195 1509.624 L858.293 1494.526 C846.445 1485.509 833.654 1481 819.499 1481 805.345 1481 792.343 1485.509 780.81 1494.526 Z" fill="#0d022b" fill-opacity="1" stroke="none"/>
  <path id="Tracé-26" d="M780.705 1571.589 C775.882 1564.25 773.575 1556.491 773.575 1548.103 773.575 1539.61 775.882 1531.747 780.705 1524.617 L765.712 1509.624 C756.904 1521.157 752.501 1533.949 752.501 1548.208 752.501 1562.258 756.904 1575.154 765.817 1586.897 Z" fill="#0d022b" fill-opacity="1" stroke="none"/>
  <path id="Tracé-27" d="M843.09 1586.583 C835.96 1591.406 828.097 1593.922 819.604 1594.027 810.901 1594.027 802.933 1591.72 795.803 1586.688 L780.705 1601.681 C792.343 1610.803 805.345 1615.311 819.604 1615.206 833.759 1615.101 846.55 1610.488 858.083 1601.681 Z" fill="#0d022b" fill-opacity="1" stroke="none"/>
  <path id="Tracé-28" d="M857.874 1524.407 C862.697 1531.747 865.213 1539.715 865.003 1548.313 864.899 1556.701 862.487 1564.355 857.874 1571.38 L872.972 1586.373 C881.884 1574.84 886.497 1562.048 886.497 1547.998 886.602 1533.739 882.094 1520.738 872.972 1509.099 Z" fill="#0d022b" fill-opacity="1" stroke="none"/>
  <path id="Tracé-29" d="M873.601 1591.301 C879.368 1591.301 884.191 1596.019 884.191 1601.891 884.191 1607.657 879.473 1612.48 873.601 1612.48 867.834 1612.48 863.011 1607.762 863.011 1601.891 863.011 1596.019 867.729 1591.301 873.601 1591.301 Z" fill="#0d022b" fill-opacity="1" stroke="none"/>
  <path id="Tracé-30" d="M765.607 1591.301 C771.374 1591.301 776.092 1596.019 776.092 1601.891 776.092 1607.657 771.374 1612.48 765.607 1612.48 759.84 1612.48 755.122 1607.762 755.122 1601.891 755.122 1596.019 759.84 1591.301 765.607 1591.301 Z" fill="#0d022b" fill-opacity="1" stroke="none"/>
  <path id="Tracé-31" d="M873.811 1483.307 C879.577 1483.307 884.296 1488.025 884.296 1493.896 884.296 1499.768 879.577 1504.486 873.811 1504.486 868.044 1504.486 863.326 1499.768 863.326 1493.896 863.326 1488.025 868.044 1483.307 873.811 1483.307 Z" fill="#0d022b" fill-opacity="1" stroke="none"/>
  <path id="Tracé-32" d="M765.397 1483.307 C771.164 1483.307 775.987 1488.025 775.987 1493.792 775.987 1499.558 771.269 1504.276 765.397 1504.276 759.63 1504.276 754.807 1499.558 754.807 1493.792 754.807 1488.025 759.526 1483.307 765.397 1483.307 Z" fill="#0d022b" fill-opacity="1" stroke="none"/>
 </g>
</svg>
